<mxfile host="Electron" modified="2024-01-13T14:17:03.751Z" agent="Mozilla/5.0 (Windows NT 10.0; Win64; x64) AppleWebKit/537.36 (KHTML, like Gecko) draw.io/21.7.5 Chrome/114.0.5735.289 Electron/25.8.1 Safari/537.36" etag="FTBQT29nTdXoUBdwyFGS" version="21.7.5" type="device">
  <diagram name="Seite-1" id="q0Ph9pf5E1GZjmoomfkb">
    <mxGraphModel dx="2421" dy="1388" grid="1" gridSize="5" guides="1" tooltips="1" connect="1" arrows="1" fold="1" page="1" pageScale="1" pageWidth="827" pageHeight="1169" math="0" shadow="0">
      <root>
        <mxCell id="0" />
        <mxCell id="1" parent="0" />
        <mxCell id="0v1u6NzdMe5Mmq7iTEW3-19" style="rounded=0;orthogonalLoop=1;jettySize=auto;html=1;" edge="1" parent="1" target="0v1u6NzdMe5Mmq7iTEW3-9">
          <mxGeometry relative="1" as="geometry">
            <mxPoint x="260" y="1400" as="sourcePoint" />
          </mxGeometry>
        </mxCell>
        <mxCell id="0v1u6NzdMe5Mmq7iTEW3-13" value="express" style="rounded=1;whiteSpace=wrap;html=1;fontSize=18;fillColor=#f8cecc;strokeColor=#b85450;verticalAlign=top;" vertex="1" parent="1">
          <mxGeometry x="262.5" y="1195" width="330" height="285" as="geometry" />
        </mxCell>
        <mxCell id="0v1u6NzdMe5Mmq7iTEW3-2" value="&lt;div style=&quot;color: rgb(204, 204, 204); background-color: rgb(31, 31, 31); font-family: &amp;quot;CaskaydiaCove Nerd Font Mono&amp;quot;, Consolas, &amp;quot;Courier New&amp;quot;, monospace; font-weight: normal; font-size: 16px; line-height: 22px;&quot;&gt;&lt;div&gt;&lt;span style=&quot;color: #c586c0;&quot;&gt;import&lt;/span&gt;&lt;span style=&quot;color: #cccccc;&quot;&gt; &lt;/span&gt;&lt;span style=&quot;color: #9cdcfe;&quot;&gt;express&lt;/span&gt;&lt;span style=&quot;color: #cccccc;&quot;&gt; &lt;/span&gt;&lt;span style=&quot;color: #c586c0;&quot;&gt;from&lt;/span&gt;&lt;span style=&quot;color: #cccccc;&quot;&gt; &lt;/span&gt;&lt;span style=&quot;color: #ce9178;&quot;&gt;&quot;express&quot;&lt;/span&gt;&lt;span style=&quot;color: #cccccc;&quot;&gt;;&lt;/span&gt;&lt;/div&gt;&lt;br&gt;&lt;div&gt;&lt;span style=&quot;color: #569cd6;&quot;&gt;const&lt;/span&gt;&lt;span style=&quot;color: #cccccc;&quot;&gt; &lt;/span&gt;&lt;span style=&quot;color: #4fc1ff;&quot;&gt;app&lt;/span&gt;&lt;span style=&quot;color: #cccccc;&quot;&gt; &lt;/span&gt;&lt;span style=&quot;color: #d4d4d4;&quot;&gt;=&lt;/span&gt;&lt;span style=&quot;color: #cccccc;&quot;&gt; &lt;/span&gt;&lt;span style=&quot;color: #dcdcaa;&quot;&gt;express&lt;/span&gt;&lt;span style=&quot;color: #cccccc;&quot;&gt;();&lt;/span&gt;&lt;/div&gt;&lt;div&gt;&lt;span style=&quot;color: #4fc1ff;&quot;&gt;app&lt;/span&gt;&lt;span style=&quot;color: #cccccc;&quot;&gt;.&lt;/span&gt;&lt;span style=&quot;color: #dcdcaa;&quot;&gt;get&lt;/span&gt;&lt;span style=&quot;color: #cccccc;&quot;&gt;(&lt;/span&gt;&lt;span style=&quot;color: #ce9178;&quot;&gt;&quot;/&quot;&lt;/span&gt;&lt;span style=&quot;color: #cccccc;&quot;&gt;, (&lt;/span&gt;&lt;span style=&quot;color: #9cdcfe;&quot;&gt;request&lt;/span&gt;&lt;span style=&quot;color: #cccccc;&quot;&gt;, &lt;/span&gt;&lt;span style=&quot;color: #9cdcfe;&quot;&gt;response&lt;/span&gt;&lt;span style=&quot;color: #cccccc;&quot;&gt;) &lt;/span&gt;&lt;span style=&quot;color: #569cd6;&quot;&gt;=&amp;gt;&lt;/span&gt;&lt;span style=&quot;color: #cccccc;&quot;&gt; {&lt;/span&gt;&lt;/div&gt;&lt;div&gt;&lt;span style=&quot;color: #cccccc;&quot;&gt;&amp;nbsp; &lt;/span&gt;&lt;span style=&quot;color: #9cdcfe;&quot;&gt;response&lt;/span&gt;&lt;span style=&quot;color: #cccccc;&quot;&gt;.&lt;/span&gt;&lt;span style=&quot;color: #dcdcaa;&quot;&gt;send&lt;/span&gt;&lt;span style=&quot;color: #cccccc;&quot;&gt;(&lt;/span&gt;&lt;span style=&quot;color: #ce9178;&quot;&gt;&quot;Server funktioniert!&quot;&lt;/span&gt;&lt;span style=&quot;color: #cccccc;&quot;&gt;);&amp;nbsp;&lt;/span&gt;&lt;/div&gt;&lt;div&gt;&lt;span style=&quot;color: #cccccc;&quot;&gt;});&lt;/span&gt;&lt;/div&gt;&lt;div&gt;&lt;span style=&quot;color: #cccccc;&quot;&gt;&lt;br&gt;&lt;/span&gt;&lt;/div&gt;&lt;div&gt;&lt;span style=&quot;color: #4fc1ff;&quot;&gt;app&lt;/span&gt;&lt;span style=&quot;color: #cccccc;&quot;&gt;.&lt;/span&gt;&lt;span style=&quot;color: #dcdcaa;&quot;&gt;listen&lt;/span&gt;&lt;span style=&quot;color: #cccccc;&quot;&gt;(&lt;/span&gt;&lt;span style=&quot;color: #b5cea8;&quot;&gt;80&lt;/span&gt;&lt;span style=&quot;color: #cccccc;&quot;&gt;, () &lt;/span&gt;&lt;span style=&quot;color: #569cd6;&quot;&gt;=&amp;gt;&lt;/span&gt;&lt;span style=&quot;color: #cccccc;&quot;&gt; {&lt;/span&gt;&lt;/div&gt;&lt;div&gt;&lt;span style=&quot;color: #cccccc;&quot;&gt;&amp;nbsp; &lt;/span&gt;&lt;span style=&quot;color: #9cdcfe;&quot;&gt;console&lt;/span&gt;&lt;span style=&quot;color: #cccccc;&quot;&gt;.&lt;/span&gt;&lt;span style=&quot;color: #dcdcaa;&quot;&gt;log&lt;/span&gt;&lt;span style=&quot;color: #cccccc;&quot;&gt;(&lt;/span&gt;&lt;span style=&quot;color: #ce9178;&quot;&gt;&quot;Server gestartet&quot;&lt;/span&gt;&lt;span style=&quot;color: #cccccc;&quot;&gt;);&lt;/span&gt;&lt;/div&gt;&lt;div&gt;&lt;span style=&quot;color: #cccccc;&quot;&gt;});&lt;/span&gt;&lt;/div&gt;&lt;div&gt;&lt;span style=&quot;color: #cccccc;&quot;&gt;&lt;br&gt;&lt;/span&gt;&lt;/div&gt;&lt;/div&gt;" style="text;whiteSpace=wrap;html=1;" vertex="1" parent="1">
          <mxGeometry x="20" y="100" width="410" height="230" as="geometry" />
        </mxCell>
        <mxCell id="0v1u6NzdMe5Mmq7iTEW3-3" value="&lt;br&gt;" style="rounded=1;whiteSpace=wrap;html=1;fillColor=none;strokeColor=#00BEF2;strokeWidth=3;" vertex="1" parent="1">
          <mxGeometry x="20" y="260" width="385" height="70" as="geometry" />
        </mxCell>
        <mxCell id="0v1u6NzdMe5Mmq7iTEW3-4" value="&lt;font style=&quot;&quot; color=&quot;#000000&quot;&gt;&lt;font style=&quot;font-size: 18px;&quot;&gt;Server starten:&lt;/font&gt;&lt;span style=&quot;font-size: 17px;&quot;&gt;&amp;nbsp;&lt;/span&gt;&lt;/font&gt;&lt;span style=&quot;font-family: &amp;quot;CaskaydiaCove Nerd Font Mono&amp;quot;, Consolas, &amp;quot;Courier New&amp;quot;, monospace;&quot;&gt;&lt;font color=&quot;#000000&quot;&gt;listen(&lt;/font&gt;port&lt;font color=&quot;#000000&quot;&gt;, callback?)&amp;nbsp;&lt;/font&gt;&lt;/span&gt;" style="text;html=1;align=left;verticalAlign=middle;resizable=0;points=[];autosize=1;strokeColor=none;fillColor=none;fontSize=16;fontColor=#b7cdab;" vertex="1" parent="1">
          <mxGeometry x="410" y="275" width="370" height="40" as="geometry" />
        </mxCell>
        <mxCell id="0v1u6NzdMe5Mmq7iTEW3-5" value="" style="rounded=1;whiteSpace=wrap;html=1;fillColor=none;strokeColor=#F0210A;strokeWidth=3;" vertex="1" parent="1">
          <mxGeometry x="20" y="170" width="385" height="70" as="geometry" />
        </mxCell>
        <mxCell id="0v1u6NzdMe5Mmq7iTEW3-6" value="&lt;font style=&quot;&quot; color=&quot;#000000&quot;&gt;&lt;font style=&quot;font-size: 18px;&quot;&gt;Request Handler registrieren:&lt;br&gt;&lt;/font&gt;&lt;/font&gt;&lt;span style=&quot;font-family: &amp;quot;CaskaydiaCove Nerd Font Mono&amp;quot;, Consolas, &amp;quot;Courier New&amp;quot;, monospace;&quot;&gt;&lt;font color=&quot;#000000&quot;&gt;METHOD(&lt;/font&gt;&lt;font color=&quot;#c7917c&quot;&gt;path&lt;/font&gt;&lt;font color=&quot;#000000&quot;&gt;, ...handlers)&amp;nbsp;&lt;/font&gt;&lt;/span&gt;" style="text;html=1;align=left;verticalAlign=middle;resizable=0;points=[];autosize=1;strokeColor=none;fillColor=none;fontSize=16;fontColor=#b7cdab;" vertex="1" parent="1">
          <mxGeometry x="414" y="178" width="265" height="55" as="geometry" />
        </mxCell>
        <mxCell id="0v1u6NzdMe5Mmq7iTEW3-8" value="" style="sketch=0;outlineConnect=0;fontColor=#232F3E;gradientColor=none;fillColor=#232F3D;strokeColor=none;dashed=0;verticalLabelPosition=bottom;verticalAlign=top;align=center;html=1;fontSize=12;fontStyle=0;aspect=fixed;pointerEvents=1;shape=mxgraph.aws4.user;" vertex="1" parent="1">
          <mxGeometry x="45" y="1305" width="65" height="65" as="geometry" />
        </mxCell>
        <mxCell id="0v1u6NzdMe5Mmq7iTEW3-14" style="rounded=0;orthogonalLoop=1;jettySize=auto;html=1;entryX=-0.001;entryY=0.199;entryDx=0;entryDy=0;entryPerimeter=0;" edge="1" parent="1" source="0v1u6NzdMe5Mmq7iTEW3-9" target="0v1u6NzdMe5Mmq7iTEW3-13">
          <mxGeometry relative="1" as="geometry" />
        </mxCell>
        <mxCell id="0v1u6NzdMe5Mmq7iTEW3-9" value="" style="sketch=0;pointerEvents=1;shadow=0;dashed=0;html=1;strokeColor=none;fillColor=#000000;labelPosition=center;verticalLabelPosition=bottom;verticalAlign=top;outlineConnect=0;align=center;shape=mxgraph.office.devices.laptop;" vertex="1" parent="1">
          <mxGeometry x="115" y="1315.25" width="70" height="44.5" as="geometry" />
        </mxCell>
        <mxCell id="0v1u6NzdMe5Mmq7iTEW3-10" value="&lt;div style=&quot;color: rgb(204, 204, 204); background-color: rgb(31, 31, 31); font-family: &amp;quot;CaskaydiaCove Nerd Font Mono&amp;quot;, Consolas, &amp;quot;Courier New&amp;quot;, monospace; font-weight: normal; font-size: 16px; line-height: 22px;&quot;&gt;&lt;div&gt;&lt;span style=&quot;color: #6a9955;&quot;&gt;// Einfache Request-Logging Middleware&lt;/span&gt;&lt;/div&gt;&lt;div&gt;&lt;span style=&quot;color: #4fc1ff;&quot;&gt;app&lt;/span&gt;&lt;span style=&quot;color: #cccccc;&quot;&gt;.&lt;/span&gt;&lt;span style=&quot;color: #dcdcaa;&quot;&gt;use&lt;/span&gt;&lt;span style=&quot;color: #cccccc;&quot;&gt;((&lt;/span&gt;&lt;span style=&quot;color: #9cdcfe;&quot;&gt;request&lt;/span&gt;&lt;span style=&quot;color: #cccccc;&quot;&gt;, &lt;/span&gt;&lt;span style=&quot;color: #9cdcfe;&quot;&gt;response&lt;/span&gt;&lt;span style=&quot;color: #cccccc;&quot;&gt;, &lt;/span&gt;&lt;span style=&quot;color: #dcdcaa;&quot;&gt;next&lt;/span&gt;&lt;span style=&quot;color: #cccccc;&quot;&gt;) &lt;/span&gt;&lt;span style=&quot;color: #569cd6;&quot;&gt;=&amp;gt;&lt;/span&gt;&lt;span style=&quot;color: #cccccc;&quot;&gt; {&lt;/span&gt;&lt;/div&gt;&lt;div&gt;&lt;span style=&quot;color: #cccccc;&quot;&gt;&amp;nbsp; &lt;/span&gt;&lt;span style=&quot;color: #9cdcfe;&quot;&gt;console&lt;/span&gt;&lt;span style=&quot;color: #cccccc;&quot;&gt;.&lt;/span&gt;&lt;span style=&quot;color: #dcdcaa;&quot;&gt;log&lt;/span&gt;&lt;span style=&quot;color: #cccccc;&quot;&gt;(&lt;/span&gt;&lt;span style=&quot;color: #569cd6;&quot;&gt;new&lt;/span&gt;&lt;span style=&quot;color: #cccccc;&quot;&gt; &lt;/span&gt;&lt;span style=&quot;color: #4ec9b0;&quot;&gt;Date&lt;/span&gt;&lt;span style=&quot;color: #cccccc;&quot;&gt;(), &lt;/span&gt;&lt;span style=&quot;color: #9cdcfe;&quot;&gt;request&lt;/span&gt;&lt;span style=&quot;color: #cccccc;&quot;&gt;.&lt;/span&gt;&lt;span style=&quot;color: #9cdcfe;&quot;&gt;socket&lt;/span&gt;&lt;span style=&quot;color: #cccccc;&quot;&gt;.&lt;/span&gt;&lt;span style=&quot;color: #4fc1ff;&quot;&gt;remoteAddress&lt;/span&gt;&lt;span style=&quot;color: #cccccc;&quot;&gt;, &lt;/span&gt;&lt;span style=&quot;color: #9cdcfe;&quot;&gt;request&lt;/span&gt;&lt;span style=&quot;color: #cccccc;&quot;&gt;.&lt;/span&gt;&lt;span style=&quot;color: #9cdcfe;&quot;&gt;method&lt;/span&gt;&lt;span style=&quot;color: #cccccc;&quot;&gt;, &lt;/span&gt;&lt;span style=&quot;color: #9cdcfe;&quot;&gt;request&lt;/span&gt;&lt;span style=&quot;color: #cccccc;&quot;&gt;.&lt;/span&gt;&lt;span style=&quot;color: #9cdcfe;&quot;&gt;url&lt;/span&gt;&lt;span style=&quot;color: #cccccc;&quot;&gt;);&lt;/span&gt;&lt;/div&gt;&lt;div&gt;&lt;span style=&quot;color: #cccccc;&quot;&gt;&amp;nbsp; &lt;/span&gt;&lt;span style=&quot;color: #dcdcaa;&quot;&gt;next&lt;/span&gt;&lt;span style=&quot;color: #cccccc;&quot;&gt;();&lt;/span&gt;&lt;/div&gt;&lt;div&gt;&lt;span style=&quot;color: #cccccc;&quot;&gt;});&lt;/span&gt;&lt;/div&gt;&lt;div&gt;&lt;span style=&quot;color: #6a9955;&quot;&gt;// Sehr einfache Caching Middleware&lt;/span&gt;&lt;/div&gt;&lt;div&gt;&lt;span style=&quot;color: #4fc1ff;&quot;&gt;app&lt;/span&gt;&lt;span style=&quot;color: #cccccc;&quot;&gt;.&lt;/span&gt;&lt;span style=&quot;color: #dcdcaa;&quot;&gt;use&lt;/span&gt;&lt;span style=&quot;color: #cccccc;&quot;&gt;(&lt;/span&gt;&lt;span style=&quot;color: #ce9178;&quot;&gt;&quot;/:id&quot;&lt;/span&gt;&lt;span style=&quot;color: #cccccc;&quot;&gt;, (&lt;/span&gt;&lt;span style=&quot;color: #9cdcfe;&quot;&gt;request&lt;/span&gt;&lt;span style=&quot;color: #cccccc;&quot;&gt;, &lt;/span&gt;&lt;span style=&quot;color: #9cdcfe;&quot;&gt;response&lt;/span&gt;&lt;span style=&quot;color: #cccccc;&quot;&gt;, &lt;/span&gt;&lt;span style=&quot;color: #dcdcaa;&quot;&gt;next&lt;/span&gt;&lt;span style=&quot;color: #cccccc;&quot;&gt;) &lt;/span&gt;&lt;span style=&quot;color: #569cd6;&quot;&gt;=&amp;gt;&lt;/span&gt;&lt;span style=&quot;color: #cccccc;&quot;&gt; {&lt;/span&gt;&lt;/div&gt;&lt;div&gt;&lt;span style=&quot;color: #cccccc;&quot;&gt;&amp;nbsp; &lt;/span&gt;&lt;span style=&quot;color: #c586c0;&quot;&gt;if&lt;/span&gt;&lt;span style=&quot;color: #cccccc;&quot;&gt; (&lt;/span&gt;&lt;span style=&quot;color: #4fc1ff;&quot;&gt;cache&lt;/span&gt;&lt;span style=&quot;color: #cccccc;&quot;&gt;.&lt;/span&gt;&lt;span style=&quot;color: #dcdcaa;&quot;&gt;has&lt;/span&gt;&lt;span style=&quot;color: #cccccc;&quot;&gt;(&lt;/span&gt;&lt;span style=&quot;color: #9cdcfe;&quot;&gt;request&lt;/span&gt;&lt;span style=&quot;color: #cccccc;&quot;&gt;.&lt;/span&gt;&lt;span style=&quot;color: #9cdcfe;&quot;&gt;params&lt;/span&gt;&lt;span style=&quot;color: #cccccc;&quot;&gt;.&lt;/span&gt;&lt;span style=&quot;color: #9cdcfe;&quot;&gt;id&lt;/span&gt;&lt;span style=&quot;color: #cccccc;&quot;&gt;)) {&lt;/span&gt;&lt;/div&gt;&lt;div&gt;&lt;span style=&quot;color: #cccccc;&quot;&gt;&amp;nbsp; &amp;nbsp; &lt;/span&gt;&lt;span style=&quot;color: #9cdcfe;&quot;&gt;console&lt;/span&gt;&lt;span style=&quot;color: #cccccc;&quot;&gt;.&lt;/span&gt;&lt;span style=&quot;color: #dcdcaa;&quot;&gt;log&lt;/span&gt;&lt;span style=&quot;color: #cccccc;&quot;&gt;(&lt;/span&gt;&lt;span style=&quot;color: #ce9178;&quot;&gt;&quot;Cache hit&quot;&lt;/span&gt;&lt;span style=&quot;color: #cccccc;&quot;&gt;);&lt;/span&gt;&lt;/div&gt;&lt;div&gt;&lt;span style=&quot;color: #cccccc;&quot;&gt;&amp;nbsp; &amp;nbsp; &lt;/span&gt;&lt;span style=&quot;color: #9cdcfe;&quot;&gt;response&lt;/span&gt;&lt;span style=&quot;color: #cccccc;&quot;&gt;.&lt;/span&gt;&lt;span style=&quot;color: #dcdcaa;&quot;&gt;json&lt;/span&gt;&lt;span style=&quot;color: #cccccc;&quot;&gt;(&lt;/span&gt;&lt;span style=&quot;color: #4fc1ff;&quot;&gt;cache&lt;/span&gt;&lt;span style=&quot;color: #cccccc;&quot;&gt;.&lt;/span&gt;&lt;span style=&quot;color: #dcdcaa;&quot;&gt;get&lt;/span&gt;&lt;span style=&quot;color: #cccccc;&quot;&gt;(&lt;/span&gt;&lt;span style=&quot;color: #9cdcfe;&quot;&gt;request&lt;/span&gt;&lt;span style=&quot;color: #cccccc;&quot;&gt;.&lt;/span&gt;&lt;span style=&quot;color: #9cdcfe;&quot;&gt;params&lt;/span&gt;&lt;span style=&quot;color: #cccccc;&quot;&gt;.&lt;/span&gt;&lt;span style=&quot;color: #9cdcfe;&quot;&gt;id&lt;/span&gt;&lt;span style=&quot;color: #cccccc;&quot;&gt;));&lt;/span&gt;&lt;/div&gt;&lt;div&gt;&lt;span style=&quot;color: #cccccc;&quot;&gt;&amp;nbsp; } &lt;/span&gt;&lt;span style=&quot;color: #c586c0;&quot;&gt;else&lt;/span&gt;&lt;span style=&quot;color: #cccccc;&quot;&gt; {&lt;/span&gt;&lt;/div&gt;&lt;div&gt;&lt;span style=&quot;color: #cccccc;&quot;&gt;&amp;nbsp; &amp;nbsp; &lt;/span&gt;&lt;span style=&quot;color: #dcdcaa;&quot;&gt;next&lt;/span&gt;&lt;span style=&quot;color: #cccccc;&quot;&gt;();&lt;/span&gt;&lt;/div&gt;&lt;div&gt;&lt;span style=&quot;color: #cccccc;&quot;&gt;&amp;nbsp; }&lt;/span&gt;&lt;/div&gt;&lt;div&gt;&lt;span style=&quot;color: #cccccc;&quot;&gt;});&lt;/span&gt;&lt;/div&gt;&lt;br&gt;&lt;div&gt;&lt;span style=&quot;color: #4fc1ff;&quot;&gt;app&lt;/span&gt;&lt;span style=&quot;color: #cccccc;&quot;&gt;.&lt;/span&gt;&lt;span style=&quot;color: #dcdcaa;&quot;&gt;get&lt;/span&gt;&lt;span style=&quot;color: #cccccc;&quot;&gt;(&lt;/span&gt;&lt;span style=&quot;color: #ce9178;&quot;&gt;&quot;/:id&quot;&lt;/span&gt;&lt;span style=&quot;color: #cccccc;&quot;&gt;, &lt;/span&gt;&lt;span style=&quot;color: #569cd6;&quot;&gt;async&lt;/span&gt;&lt;span style=&quot;color: #cccccc;&quot;&gt; (&lt;/span&gt;&lt;span style=&quot;color: #9cdcfe;&quot;&gt;request&lt;/span&gt;&lt;span style=&quot;color: #cccccc;&quot;&gt;, &lt;/span&gt;&lt;span style=&quot;color: #9cdcfe;&quot;&gt;response&lt;/span&gt;&lt;span style=&quot;color: #cccccc;&quot;&gt;) &lt;/span&gt;&lt;span style=&quot;color: #569cd6;&quot;&gt;=&amp;gt;&lt;/span&gt;&lt;span style=&quot;color: #cccccc;&quot;&gt; {&lt;/span&gt;&lt;/div&gt;&lt;div&gt;&lt;span style=&quot;color: #cccccc;&quot;&gt;&amp;nbsp; &lt;/span&gt;&lt;span style=&quot;color: #569cd6;&quot;&gt;const&lt;/span&gt;&lt;span style=&quot;color: #cccccc;&quot;&gt; &lt;/span&gt;&lt;span style=&quot;color: #4fc1ff;&quot;&gt;apiResponse&lt;/span&gt;&lt;span style=&quot;color: #cccccc;&quot;&gt; &lt;/span&gt;&lt;span style=&quot;color: #d4d4d4;&quot;&gt;=&lt;/span&gt;&lt;span style=&quot;color: #cccccc;&quot;&gt; &lt;/span&gt;&lt;span style=&quot;color: #c586c0;&quot;&gt;await&lt;/span&gt;&lt;span style=&quot;color: #cccccc;&quot;&gt; &lt;/span&gt;&lt;span style=&quot;color: #dcdcaa;&quot;&gt;fetch&lt;/span&gt;&lt;span style=&quot;color: #cccccc;&quot;&gt;(&lt;/span&gt;&lt;span style=&quot;color: #ce9178;&quot;&gt;`https://pokeapi.co/api/v2/pokemon/&lt;/span&gt;&lt;span style=&quot;color: #569cd6;&quot;&gt;${&lt;/span&gt;&lt;span style=&quot;color: #9cdcfe;&quot;&gt;request&lt;/span&gt;&lt;span style=&quot;color: #d4d4d4;&quot;&gt;.&lt;/span&gt;&lt;span style=&quot;color: #9cdcfe;&quot;&gt;params&lt;/span&gt;&lt;span style=&quot;color: #d4d4d4;&quot;&gt;.&lt;/span&gt;&lt;span style=&quot;color: #9cdcfe;&quot;&gt;id&lt;/span&gt;&lt;span style=&quot;color: #569cd6;&quot;&gt;}&lt;/span&gt;&lt;span style=&quot;color: #ce9178;&quot;&gt;`&lt;/span&gt;&lt;span style=&quot;color: #cccccc;&quot;&gt;);&lt;/span&gt;&lt;/div&gt;&lt;div&gt;&lt;span style=&quot;color: #cccccc;&quot;&gt;&amp;nbsp; &lt;/span&gt;&lt;span style=&quot;color: #569cd6;&quot;&gt;const&lt;/span&gt;&lt;span style=&quot;color: #cccccc;&quot;&gt; &lt;/span&gt;&lt;span style=&quot;color: #4fc1ff;&quot;&gt;responseJson&lt;/span&gt;&lt;span style=&quot;color: #cccccc;&quot;&gt; &lt;/span&gt;&lt;span style=&quot;color: #d4d4d4;&quot;&gt;=&lt;/span&gt;&lt;span style=&quot;color: #cccccc;&quot;&gt; &lt;/span&gt;&lt;span style=&quot;color: #c586c0;&quot;&gt;await&lt;/span&gt;&lt;span style=&quot;color: #cccccc;&quot;&gt; &lt;/span&gt;&lt;span style=&quot;color: #4fc1ff;&quot;&gt;apiResponse&lt;/span&gt;&lt;span style=&quot;color: #cccccc;&quot;&gt;.&lt;/span&gt;&lt;span style=&quot;color: #dcdcaa;&quot;&gt;json&lt;/span&gt;&lt;span style=&quot;color: #cccccc;&quot;&gt;();&lt;/span&gt;&lt;/div&gt;&lt;div&gt;&lt;span style=&quot;color: #cccccc;&quot;&gt;&amp;nbsp; &lt;/span&gt;&lt;span style=&quot;color: #4fc1ff;&quot;&gt;cache&lt;/span&gt;&lt;span style=&quot;color: #cccccc;&quot;&gt;.&lt;/span&gt;&lt;span style=&quot;color: #dcdcaa;&quot;&gt;set&lt;/span&gt;&lt;span style=&quot;color: #cccccc;&quot;&gt;(&lt;/span&gt;&lt;span style=&quot;color: #9cdcfe;&quot;&gt;request&lt;/span&gt;&lt;span style=&quot;color: #cccccc;&quot;&gt;.&lt;/span&gt;&lt;span style=&quot;color: #9cdcfe;&quot;&gt;params&lt;/span&gt;&lt;span style=&quot;color: #cccccc;&quot;&gt;.&lt;/span&gt;&lt;span style=&quot;color: #9cdcfe;&quot;&gt;id&lt;/span&gt;&lt;span style=&quot;color: #cccccc;&quot;&gt;, &lt;/span&gt;&lt;span style=&quot;color: #4fc1ff;&quot;&gt;responseJson&lt;/span&gt;&lt;span style=&quot;color: #cccccc;&quot;&gt;);&lt;/span&gt;&lt;/div&gt;&lt;div&gt;&lt;span style=&quot;color: #cccccc;&quot;&gt;&amp;nbsp; &lt;/span&gt;&lt;span style=&quot;color: #9cdcfe;&quot;&gt;response&lt;/span&gt;&lt;span style=&quot;color: #cccccc;&quot;&gt;.&lt;/span&gt;&lt;span style=&quot;color: #dcdcaa;&quot;&gt;json&lt;/span&gt;&lt;span style=&quot;color: #cccccc;&quot;&gt;(&lt;/span&gt;&lt;span style=&quot;color: #4fc1ff;&quot;&gt;responseJson&lt;/span&gt;&lt;span style=&quot;color: #cccccc;&quot;&gt;);&lt;/span&gt;&lt;/div&gt;&lt;div&gt;&lt;span style=&quot;color: #cccccc;&quot;&gt;});&lt;/span&gt;&lt;/div&gt;&lt;/div&gt;" style="text;whiteSpace=wrap;html=1;" vertex="1" parent="1">
          <mxGeometry x="20" y="440" width="550" height="525" as="geometry" />
        </mxCell>
        <mxCell id="0v1u6NzdMe5Mmq7iTEW3-17" style="edgeStyle=orthogonalEdgeStyle;rounded=0;orthogonalLoop=1;jettySize=auto;html=1;entryX=0.5;entryY=0;entryDx=0;entryDy=0;" edge="1" parent="1" source="0v1u6NzdMe5Mmq7iTEW3-12" target="0v1u6NzdMe5Mmq7iTEW3-16">
          <mxGeometry relative="1" as="geometry" />
        </mxCell>
        <mxCell id="0v1u6NzdMe5Mmq7iTEW3-12" value="Logging-Middleware" style="rounded=1;whiteSpace=wrap;html=1;fontSize=18;fillColor=#dae8fc;strokeColor=#6c8ebf;" vertex="1" parent="1">
          <mxGeometry x="335" y="1235" width="185" height="39.75" as="geometry" />
        </mxCell>
        <mxCell id="0v1u6NzdMe5Mmq7iTEW3-15" value="" style="endArrow=classic;html=1;rounded=0;entryX=-0.003;entryY=0.463;entryDx=0;entryDy=0;exitX=-0.001;exitY=0.198;exitDx=0;exitDy=0;exitPerimeter=0;entryPerimeter=0;dashed=1;" edge="1" parent="1" source="0v1u6NzdMe5Mmq7iTEW3-13" target="0v1u6NzdMe5Mmq7iTEW3-12">
          <mxGeometry width="50" height="50" relative="1" as="geometry">
            <mxPoint x="340" y="1250" as="sourcePoint" />
            <mxPoint x="320" y="1320" as="targetPoint" />
          </mxGeometry>
        </mxCell>
        <mxCell id="0v1u6NzdMe5Mmq7iTEW3-18" style="rounded=0;orthogonalLoop=1;jettySize=auto;html=1;entryX=-0.001;entryY=0.704;entryDx=0;entryDy=0;entryPerimeter=0;dashed=1;" edge="1" parent="1" source="0v1u6NzdMe5Mmq7iTEW3-16" target="0v1u6NzdMe5Mmq7iTEW3-13">
          <mxGeometry relative="1" as="geometry" />
        </mxCell>
        <mxCell id="0v1u6NzdMe5Mmq7iTEW3-21" style="edgeStyle=orthogonalEdgeStyle;rounded=0;orthogonalLoop=1;jettySize=auto;html=1;entryX=0.5;entryY=0;entryDx=0;entryDy=0;" edge="1" parent="1" source="0v1u6NzdMe5Mmq7iTEW3-16" target="0v1u6NzdMe5Mmq7iTEW3-20">
          <mxGeometry relative="1" as="geometry" />
        </mxCell>
        <mxCell id="0v1u6NzdMe5Mmq7iTEW3-16" value="Caching-Middleware" style="rounded=1;whiteSpace=wrap;html=1;fontSize=18;fillColor=#d5e8d4;strokeColor=#82b366;" vertex="1" parent="1">
          <mxGeometry x="335" y="1310" width="185" height="39.75" as="geometry" />
        </mxCell>
        <mxCell id="0v1u6NzdMe5Mmq7iTEW3-22" style="edgeStyle=orthogonalEdgeStyle;rounded=0;orthogonalLoop=1;jettySize=auto;html=1;entryX=0.003;entryY=0.394;entryDx=0;entryDy=0;entryPerimeter=0;exitX=1.002;exitY=0.385;exitDx=0;exitDy=0;exitPerimeter=0;" edge="1" parent="1" source="0v1u6NzdMe5Mmq7iTEW3-20" target="0v1u6NzdMe5Mmq7iTEW3-23">
          <mxGeometry relative="1" as="geometry">
            <mxPoint x="680" y="1404.875" as="targetPoint" />
            <Array as="points" />
          </mxGeometry>
        </mxCell>
        <mxCell id="0v1u6NzdMe5Mmq7iTEW3-25" style="rounded=0;orthogonalLoop=1;jettySize=auto;html=1;exitX=0;exitY=0.5;exitDx=0;exitDy=0;dashed=1;entryX=0.004;entryY=0.716;entryDx=0;entryDy=0;entryPerimeter=0;" edge="1" parent="1" source="0v1u6NzdMe5Mmq7iTEW3-20" target="0v1u6NzdMe5Mmq7iTEW3-13">
          <mxGeometry relative="1" as="geometry">
            <mxPoint x="265" y="1395" as="targetPoint" />
          </mxGeometry>
        </mxCell>
        <mxCell id="0v1u6NzdMe5Mmq7iTEW3-20" value="Request-Handler" style="rounded=1;whiteSpace=wrap;html=1;fontSize=18;fillColor=#ffe6cc;strokeColor=#d79b00;" vertex="1" parent="1">
          <mxGeometry x="335" y="1385" width="185" height="39.75" as="geometry" />
        </mxCell>
        <mxCell id="0v1u6NzdMe5Mmq7iTEW3-23" value="Poké-API" style="rounded=1;whiteSpace=wrap;html=1;fillColor=#f5f5f5;strokeColor=#666666;fontColor=#333333;" vertex="1" parent="1">
          <mxGeometry x="615" y="1382.25" width="80" height="45.25" as="geometry" />
        </mxCell>
        <mxCell id="0v1u6NzdMe5Mmq7iTEW3-24" style="edgeStyle=orthogonalEdgeStyle;rounded=0;orthogonalLoop=1;jettySize=auto;html=1;entryX=0;entryY=0.5;entryDx=0;entryDy=0;startArrow=classic;startFill=1;endArrow=none;endFill=0;" edge="1" parent="1">
          <mxGeometry relative="1" as="geometry">
            <mxPoint x="615" y="1415" as="targetPoint" />
            <mxPoint x="520" y="1415" as="sourcePoint" />
          </mxGeometry>
        </mxCell>
        <mxCell id="0v1u6NzdMe5Mmq7iTEW3-26" value="Logging-Middleware" style="rounded=1;whiteSpace=wrap;html=1;fontSize=18;fillColor=#dae8fc;strokeColor=#6c8ebf;" vertex="1" parent="1">
          <mxGeometry x="620" y="465" width="255" height="125" as="geometry" />
        </mxCell>
        <mxCell id="0v1u6NzdMe5Mmq7iTEW3-27" value="Caching-Middleware" style="rounded=1;whiteSpace=wrap;html=1;fontSize=18;fillColor=#d5e8d4;strokeColor=#82b366;" vertex="1" parent="1">
          <mxGeometry x="620" y="595" width="255" height="165" as="geometry" />
        </mxCell>
        <mxCell id="0v1u6NzdMe5Mmq7iTEW3-28" value="Request-Handler" style="rounded=1;whiteSpace=wrap;html=1;fontSize=18;fillColor=#ffe6cc;strokeColor=#d79b00;" vertex="1" parent="1">
          <mxGeometry x="615" y="780" width="255" height="175" as="geometry" />
        </mxCell>
      </root>
    </mxGraphModel>
  </diagram>
</mxfile>
